Coordinates
version=1
nRows=12
nColumns=34
inDegrees=yes

Units are S.I. units (second, meters, Newtons, ...)
If the header above contains a line with 'inDegrees', this indicates whether rotational values are in degrees (yes) or radians (no).

endheader
time	pelvis_tilt	pelvis_list	pelvis_rotation	pelvis_tx	pelvis_ty	pelvis_tz	hip_flexion_r	hip_adduction_r	hip_rotation_r	knee_angle_r	ankle_angle_r	subtalar_angle_r	mtp_angle_r	hip_flexion_l	hip_adduction_l	hip_rotation_l	knee_angle_l	ankle_angle_l	subtalar_angle_l	mtp_angle_l	lumbar_extension	lumbar_bending	lumbar_rotation	arm_flex_r	arm_add_r	arm_rot_r	elbow_flex_r	pro_sup_r	arm_flex_l	arm_add_l	arm_rot_l	elbow_flex_l	pro_sup_l
      0.00000000	     -1.53846231	     -2.07237658	    158.88408636	      0.30633767	      0.83387947	     -0.13882165	     15.60171429	     -4.18817647	     -0.17080566	     94.68317630	      0.00000000	      0.00000000	      0.00000000	     12.71650624	     -3.59151495	     -2.27978833	     98.21792295	      0.00000000	      0.00000000	      0.00000000	     -1.01520506	      4.44156607	      2.65929095	      0.00000000	      0.00000000	      0.00000000	      0.00000000	      0.00000000	      0.00000000	      0.00000000	      0.00000000	      0.00000000	      0.00000000
      0.01666670	     -1.96399602	     -0.46744844	    160.09025557	      0.30684525	      0.83951626	     -0.13730459	     15.83139914	     -1.82967315	     -1.59512261	     98.49719477	      0.00000000	      0.00000000	      0.00000000	     14.73159207	     -5.19604342	     -2.94656995	    101.55167276	      0.00000000	      0.00000000	      0.00000000	     -1.14852618	      3.52123896	      1.19721778	      0.00000000	      0.00000000	      0.00000000	      0.00000000	      0.00000000	      0.00000000	      0.00000000	      0.00000000	      0.00000000	      0.00000000
      0.03333330	     -1.61323673	     -0.64617239	    161.08484833	      0.30739985	      0.84022364	     -0.13767670	     16.28740166	     -0.86030303	     -2.20892823	     98.69140735	      0.00000000	      0.00000000	      0.00000000	     16.13417720	     -4.56619055	     -2.60554883	    101.41889405	      0.00000000	      0.00000000	      0.00000000	     -0.16003645	      1.03859139	      1.03987935	      0.00000000	      0.00000000	      0.00000000	      0.00000000	      0.00000000	      0.00000000	      0.00000000	      0.00000000	      0.00000000	      0.00000000
      0.05000000	     -0.93514295	     -1.09602356	    161.90433607	      0.30716816	      0.83945306	     -0.13775202	     17.04566702	     -0.90322520	     -3.02108755	     97.86974120	      0.00000000	      0.00000000	      0.00000000	     17.09449007	     -4.07961299	     -2.02396301	    100.87329813	      0.00000000	      0.00000000	      0.00000000	      0.97843581	     -0.19444916	      0.11392461	      0.00000000	      0.00000000	      0.00000000	      0.00000000	      0.00000000	      0.00000000	      0.00000000	      0.00000000	      0.00000000	      0.00000000
      0.06666670	      0.13545097	     -1.25498768	    162.54115585	      0.30733444	      0.83806477	     -0.13728182	     18.05567738	     -0.55557229	     -3.81310684	     97.16212207	      0.00000000	      0.00000000	      0.00000000	     18.67238838	     -3.93736688	     -1.34159689	    100.84269182	      0.00000000	      0.00000000	      0.00000000	      2.07822865	     -0.37920701	      0.08496001	      0.00000000	      0.00000000	      0.00000000	      0.00000000	      0.00000000	      0.00000000	      0.00000000	      0.00000000	      0.00000000	      0.00000000
      0.08333330	      0.80180963	     -1.68387986	    163.06038446	      0.30762702	      0.83671436	     -0.13692190	     18.87309715	     -0.84491283	     -4.36314312	     97.19184968	      0.00000000	      0.00000000	      0.00000000	     19.93614719	     -3.43681788	     -0.78920760	    100.90333823	      0.00000000	      0.00000000	      0.00000000	      2.84166127	     -0.66057678	      0.15777417	      0.00000000	      0.00000000	      0.00000000	      0.00000000	      0.00000000	      0.00000000	      0.00000000	      0.00000000	      0.00000000	      0.00000000
      0.10000000	      1.43604309	     -1.78583121	    163.42808317	      0.30781265	      0.83553430	     -0.13663954	     19.47713575	     -0.80561350	     -4.84870754	     97.19686316	      0.00000000	      0.00000000	      0.00000000	     20.97892660	     -3.37674218	     -0.27541564	    101.10083571	      0.00000000	      0.00000000	      0.00000000	      3.40393587	     -0.53251672	      0.36540443	      0.00000000	      0.00000000	      0.00000000	      0.00000000	      0.00000000	      0.00000000	      0.00000000	      0.00000000	      0.00000000	      0.00000000
      0.11666670	      1.97902375	     -1.98641501	    163.63270981	      0.30788911	      0.83450635	     -0.13656263	     20.16371331	     -0.92632932	     -5.09207543	     97.40642315	      0.00000000	      0.00000000	      0.00000000	     21.86128469	     -3.19441791	      0.05723671	    101.23379206	      0.00000000	      0.00000000	      0.00000000	      3.96412926	     -0.50916890	      0.58464549	      0.00000000	      0.00000000	      0.00000000	      0.00000000	      0.00000000	      0.00000000	      0.00000000	      0.00000000	      0.00000000	      0.00000000
      0.13333330	      2.04609718	     -1.99980447	    163.64048690	      0.30782321	      0.83440123	     -0.13680161	     20.26979296	     -0.93244474	     -5.14322605	     97.50943113	      0.00000000	      0.00000000	      0.00000000	     21.93253662	     -3.18070203	      0.17619582	    101.17973192	      0.00000000	      0.00000000	      0.00000000	      3.88518283	     -0.47119185	      0.61156608	      0.00000000	      0.00000000	      0.00000000	      0.00000000	      0.00000000	      0.00000000	      0.00000000	      0.00000000	      0.00000000	      0.00000000
      0.15000000	      2.84017865	     -2.15520609	    163.74526097	      0.30736673	      0.83325986	     -0.13679858	     21.23681330	     -0.90959627	     -5.24094339	     97.68588558	      0.00000000	      0.00000000	      0.00000000	     22.93170950	     -3.17190586	      0.40972754	    101.30473769	      0.00000000	      0.00000000	      0.00000000	      4.87145389	     -0.31626535	      0.92198305	      0.00000000	      0.00000000	      0.00000000	      0.00000000	      0.00000000	      0.00000000	      0.00000000	      0.00000000	      0.00000000	      0.00000000
      0.16666670	      2.90141689	     -2.14987536	    163.74966814	      0.30694890	      0.83348337	     -0.13702340	     21.30727349	     -0.89629905	     -5.24703514	     97.76110312	      0.00000000	      0.00000000	      0.00000000	     22.89070843	     -3.18172474	      0.45490280	    101.16316891	      0.00000000	      0.00000000	      0.00000000	      4.85910776	     -0.30456857	      0.92100752	      0.00000000	      0.00000000	      0.00000000	      0.00000000	      0.00000000	      0.00000000	      0.00000000	      0.00000000	      0.00000000	      0.00000000
      0.18333330	      2.98145613	     -2.15337152	    163.75902518	      0.30640024	      0.83375417	     -0.13725835	     21.37399768	     -0.85944935	     -5.22771080	     97.81701939	      0.00000000	      0.00000000	      0.00000000	     22.83190953	     -3.17504284	      0.48535992	    100.98688766	      0.00000000	      0.00000000	      0.00000000	      4.88990947	     -0.27965654	      0.91980876	      0.00000000	      0.00000000	      0.00000000	      0.00000000	      0.00000000	      0.00000000	      0.00000000	      0.00000000	      0.00000000	      0.00000000
